<svg xmlns="http://www.w3.org/2000/svg" xmlns:xlink="http://www.w3.org/1999/xlink" viewBox="0 0 270.6 841.89"><defs><style>.cls-1{fill:none;}.cls-2{fill:#4e2e84;}.cls-3{fill:#009a9f;}.cls-4{fill:url(#Nouveau_motif);}.cls-5{fill:#52c3f1;}.cls-6{fill:#4b5da7;}.cls-7{fill:#ffed00;}</style><pattern id="Nouveau_motif" data-name="Nouveau motif" width="5" height="5" patternUnits="userSpaceOnUse" viewBox="0 0 5 5"><rect class="cls-1" width="5" height="5"/><circle class="cls-2" cx="2.5" cy="2.5" r="0.73"/></pattern></defs><g id="Calque_2" data-name="Calque 2"><g id="Calque_1-2" data-name="Calque 1"><polygon class="cls-3" points="0 56.72 0 0 56.72 0 0 56.72"/><polygon class="cls-4" points="56.72 0 56.72 56.72 0 56.72 56.72 0"/><polygon class="cls-5" points="113.43 56.72 56.72 56.72 56.72 0 113.43 56.72"/><polygon class="cls-2" points="56.72 0 113.43 0 113.43 56.72 56.72 0"/><polygon class="cls-5" points="56.72 113.43 56.72 56.72 113.43 56.72 56.72 113.43"/><path class="cls-6" d="M112.43,59.13v53.3H59.13l53.3-53.3m1-2.41L56.72,113.43h56.71V56.72Z"/><polygon class="cls-3" points="28.36 141.79 28.36 85.07 85.07 85.07 28.36 141.79"/><polygon class="cls-6" points="170.15 0 170.15 56.72 113.43 56.72 170.15 0"/><polygon class="cls-6" points="226.86 56.72 226.86 113.43 170.15 113.43 226.86 56.72"/><polygon class="cls-5" points="170.15 0 226.86 0 226.86 56.72 170.15 0"/><polygon class="cls-5" points="249.94 28.36 260.27 18.03 270.6 28.36 249.94 28.36"/><path class="cls-6" d="M171.15,2.41l53.3,53.31h-53.3V2.41m-1-2.41V56.72h56.71L170.15,0Z"/><polygon class="cls-5" points="113.43 113.43 113.43 56.72 170.15 56.72 113.43 113.43"/><polygon class="cls-2" points="170.15 56.72 170.15 113.43 113.43 113.43 170.15 56.72"/><polygon class="cls-5" points="170.15 170.15 113.43 170.15 113.43 113.43 170.15 170.15"/><polygon class="cls-6" points="113.43 113.43 170.15 113.43 170.15 170.15 113.43 113.43"/><path class="cls-7" d="M193.64,66v53.31h-53.3L193.64,66m1-2.41-56.72,56.72h56.72V63.59Z"/><polygon class="cls-5" points="56.72 170.15 56.72 113.43 113.43 113.43 56.72 170.15"/><polygon class="cls-3" points="113.43 113.43 113.43 170.15 56.72 170.15 113.43 113.43"/><polygon class="cls-3" points="0 283.58 0 226.86 56.72 226.86 0 283.58"/><polygon class="cls-3" points="0 841.89 0 785.17 56.72 785.17 0 841.89"/><polygon class="cls-6" points="124.07 272.94 124.07 237.5 159.51 237.5 124.07 272.94"/><polygon class="cls-5" points="0 226.86 0 170.15 56.72 170.15 0 226.86"/><polygon class="cls-4" points="56.72 226.86 56.72 170.15 113.43 170.15 56.72 226.86"/><polygon class="cls-2" points="56.72 170.15 56.72 226.86 0 226.86 56.72 170.15"/><polygon class="cls-2" points="37.6 258.01 37.6 276.49 19.12 276.49 37.6 258.01"/><polygon class="cls-2" points="112.79 725.13 112.79 743.6 94.31 743.6 112.79 725.13"/><path class="cls-2" d="M169.15,171.15v53.3l-53.3-53.3h53.3m1-1H113.43l56.72,56.71V170.15Z"/><path class="cls-7" d="M1,115.85l53.3,53.3H1v-53.3m-1-2.42v56.72H56.72L0,113.43Z"/><polygon class="cls-2" points="0 113.43 56.72 113.43 56.72 170.15 0 113.43"/><polygon class="cls-6" points="0 56.72 56.72 56.72 56.72 113.43 0 56.72"/><polygon class="cls-6" points="113.43 0 113.43 56.72 56.72 56.72 113.43 0"/><polygon class="cls-2" points="56.72 113.43 0 113.43 0 56.72 56.72 113.43"/><polygon class="cls-2" points="89.58 130.94 61.23 130.94 61.23 102.58 89.58 130.94"/><polygon class="cls-3" points="56.72 728.46 56.72 785.17 0 785.17 56.72 728.46"/><polygon class="cls-6" points="113.43 785.17 56.72 785.17 56.72 728.46 113.43 785.17"/><polygon class="cls-5" points="56.72 841.89 0 841.89 0 785.17 56.72 841.89"/><polygon class="cls-5" points="56.72 671.74 56.72 728.46 0 728.46 56.72 671.74"/><polygon class="cls-2" points="0 785.17 0 728.46 56.72 728.46 0 785.17"/><path class="cls-6" d="M84.07,655.23v53.31l-53.3-53.31h53.3m1-1H28.36L85.07,711V654.23Z"/></g></g></svg>