<svg xmlns="http://www.w3.org/2000/svg" xmlns:xlink="http://www.w3.org/1999/xlink" viewBox="0 0 277.35 841.89"><defs><style>.cls-1{fill:none;}.cls-2{fill:#4e2e84;}.cls-3{fill:#009a9f;}.cls-4{fill:#4b5da7;}.cls-5{fill:#52c3f1;}.cls-6{fill:#ffed00;}.cls-7{fill:url(#Nouveau_motif);}</style><pattern id="Nouveau_motif" data-name="Nouveau motif" width="5" height="5" patternUnits="userSpaceOnUse" viewBox="0 0 5 5"><rect class="cls-1" width="5" height="5"/><circle class="cls-2" cx="2.5" cy="2.5" r="0.73"/></pattern></defs><g id="Calque_2" data-name="Calque 2"><g id="Calque_1-2" data-name="Calque 1"><polygon class="cls-2" points="220.63 0 277.35 0 277.35 56.72 220.63 0"/><polygon class="cls-3" points="220.63 56.72 220.63 0 277.35 0 220.63 56.72"/><polygon class="cls-4" points="277.35 56.72 277.35 113.43 220.63 113.43 277.35 56.72"/><polygon class="cls-5" points="163.92 0 220.63 0 220.63 56.72 163.92 0"/><polygon class="cls-5" points="220.63 113.43 220.63 56.72 277.35 56.72 220.63 113.43"/><path class="cls-6" d="M243.64,72.9,206,110.59,168.26,72.9h75.38m2.42-1H165.85L206,112l40.11-40.1Z"/><polygon class="cls-4" points="141.07 77.75 141.07 42.3 176.52 42.3 141.07 77.75"/><polygon class="cls-3" points="277.35 785.17 277.35 841.89 220.63 841.89 277.35 785.17"/><polygon class="cls-3" points="277.35 671.74 277.35 728.46 220.63 728.46 277.35 671.74"/><polygon class="cls-7" points="220.63 841.89 220.63 785.17 277.35 785.17 220.63 841.89"/><polygon class="cls-5" points="163.92 785.17 220.63 785.17 220.63 841.89 163.92 785.17"/><polygon class="cls-2" points="220.63 841.89 163.92 841.89 163.92 785.17 220.63 841.89"/><polygon class="cls-5" points="220.63 728.46 220.63 785.17 163.92 785.17 220.63 728.46"/><path class="cls-4" d="M218.22,729.46l-53.3,53.3v-53.3h53.3m2.41-1H163.92v56.71l56.71-56.71Z"/><polygon class="cls-3" points="163.92 785.17 163.92 841.89 107.2 841.89 163.92 785.17"/><polygon class="cls-4" points="107.2 841.89 107.2 785.17 163.92 785.17 107.2 841.89"/><polygon class="cls-4" points="220.63 785.17 220.63 841.89 163.92 841.89 220.63 785.17"/><polygon class="cls-5" points="107.2 841.89 50.49 841.89 50.49 785.17 107.2 841.89"/><polygon class="cls-5" points="27.41 813.53 17.08 823.86 6.75 813.53 27.41 813.53"/><path class="cls-4" d="M106.2,786.17v53.31L52.9,786.17h53.3m1-1H50.49l56.71,56.72V785.17Z"/><polygon class="cls-5" points="163.92 728.46 163.92 785.17 107.2 785.17 163.92 728.46"/><polygon class="cls-5" points="107.2 671.74 107.2 728.46 50.49 728.46 107.2 671.74"/><polygon class="cls-2" points="107.2 785.17 107.2 728.46 163.92 728.46 107.2 785.17"/><polygon class="cls-5" points="107.2 671.74 163.92 671.74 163.92 728.46 107.2 671.74"/><polygon class="cls-4" points="163.92 728.46 107.2 728.46 107.2 671.74 163.92 728.46"/><path class="cls-6" d="M137,722.58l-53.3,53.31V722.58H137m2.42-1H82.71V778.3l56.72-56.72Z"/><polygon class="cls-5" points="220.63 671.74 220.63 728.46 163.92 728.46 220.63 671.74"/><polygon class="cls-3" points="163.92 728.46 163.92 671.74 220.63 671.74 163.92 728.46"/><polygon class="cls-3" points="277.35 558.31 277.35 615.03 220.63 615.03 277.35 558.31"/><polygon class="cls-4" points="153.28 568.95 153.28 604.39 117.84 604.39 153.28 568.95"/><path class="cls-2" d="M34.45,689.19v32h-32l32-32m1-2.41L0,722.23H35.45V686.78Z"/><polygon class="cls-5" points="277.35 615.03 277.35 671.74 220.63 671.74 277.35 615.03"/><polygon class="cls-7" points="220.63 615.03 220.63 671.74 163.92 671.74 220.63 615.03"/><polygon class="cls-2" points="220.63 671.74 220.63 615.03 277.35 615.03 220.63 671.74"/><polygon class="cls-2" points="239.75 583.88 239.75 565.4 258.23 565.4 239.75 583.88"/><path class="cls-2" d="M108.2,617.44l53.3,53.3H108.2v-53.3m-1-2.41v56.71h56.72L107.2,615Z"/><path class="cls-6" d="M276.35,672.74V726l-53.3-53.3h53.3m1-1H220.63l56.72,56.72V671.74Z"/><polygon class="cls-2" points="277.35 728.46 220.63 728.46 220.63 671.74 277.35 728.46"/><polygon class="cls-4" points="277.35 785.17 220.63 785.17 220.63 728.46 277.35 785.17"/><polygon class="cls-2" points="220.63 728.46 277.35 728.46 277.35 785.17 220.63 728.46"/><polygon class="cls-2" points="187.76 710.95 216.12 710.95 216.12 739.31 187.76 710.95"/></g></g></svg>